<svg width="30" height="30" viewBox="0 0 30 30" fill="none" xmlns="http://www.w3.org/2000/svg">
<mask id="mask0_5_205" style="mask-type:alpha" maskUnits="userSpaceOnUse" x="0" y="0" width="30" height="30">
<rect width="30" height="30" fill="#D9D9D9"/>
</mask>
<g mask="url(#mask0_5_205)">
<path d="M25.125 21.1875C25.4792 21.375 25.7917 21.3333 26.0625 21.0625C26.3333 20.7917 26.375 20.4792 26.1875 20.125L24.375 16.75L23.0625 20.125L25.125 21.1875ZM18.875 20H20.375L23.375 12.5625C23.4375 12.3958 23.4219 12.2552 23.3281 12.1406C23.2344 12.026 23.125 11.9375 23 11.875L20.5 10.875C20.3125 10.8125 20.1302 10.8333 19.9531 10.9375C19.776 11.0417 19.6667 11.1875 19.625 11.375L18.875 20ZM9.625 20H11.125L10.375 11.375C10.3333 11.1458 10.224 10.9896 10.0469 10.9062C9.86979 10.8229 9.6875 10.8125 9.5 10.875L7 11.875C6.83333 11.9375 6.71354 12.026 6.64062 12.1406C6.56771 12.2552 6.5625 12.3958 6.625 12.5625L9.625 20ZM4.875 21.1875L6.9375 20.125L5.625 16.75L3.8125 20.125C3.625 20.4792 3.66667 20.7917 3.9375 21.0625C4.20833 21.3333 4.52083 21.375 4.875 21.1875ZM13.625 20H16.375L17.3125 9.4375C17.3542 9.25 17.3073 9.08854 17.1719 8.95313C17.0365 8.81771 16.875 8.75 16.6875 8.75H13.3125C13.1458 8.75 12.9948 8.81771 12.8594 8.95313C12.724 9.08854 12.6667 9.25 12.6875 9.4375L13.625 20ZM4.3125 23.75C3.4375 23.75 2.70833 23.4219 2.125 22.7656C1.54167 22.1094 1.25 21.3333 1.25 20.4375C1.25 20.1875 1.28646 19.9427 1.35938 19.7031C1.43229 19.4635 1.52083 19.2292 1.625 19L4.375 13.75C4.08333 12.9167 4.09375 12.0938 4.40625 11.2812C4.71875 10.4688 5.27083 9.89583 6.0625 9.5625L8.5625 8.5625C8.85417 8.45833 9.14583 8.38542 9.4375 8.34375C9.72917 8.30208 10.0208 8.3125 10.3125 8.375C10.6042 7.77083 11.0104 7.26562 11.5312 6.85938C12.0521 6.45312 12.6458 6.25 13.3125 6.25H16.6875C17.3542 6.25 17.9479 6.45312 18.4688 6.85938C18.9896 7.26562 19.3958 7.77083 19.6875 8.375C19.9792 8.33333 20.2708 8.32812 20.5625 8.35938C20.8542 8.39062 21.1458 8.45833 21.4375 8.5625L23.9375 9.5625C24.7708 9.89583 25.3542 10.4688 25.6875 11.2812C26.0208 12.0938 26 12.8958 25.625 13.6875L28.375 18.9375C28.5 19.1667 28.5938 19.4062 28.6563 19.6562C28.7188 19.9063 28.75 20.1667 28.75 20.4375C28.75 21.375 28.4323 22.1615 27.7969 22.7969C27.1615 23.4323 26.375 23.75 25.4375 23.75C25.2083 23.75 24.9792 23.724 24.75 23.6719C24.5208 23.6198 24.2917 23.5417 24.0625 23.4375L22.125 22.5H7.8125L6.0625 23.4375C5.79167 23.5833 5.50521 23.6719 5.20313 23.7031C4.90104 23.7344 4.60417 23.75 4.3125 23.75Z" fill="#1C1B1F"/>
</g>
</svg>
