<svg width="305" height="123" viewBox="0 0 305 123" fill="none" xmlns="http://www.w3.org/2000/svg">
<g filter="url(#filter0_d_2_85)">
<rect x="4" y="11.1663" width="291" height="100" rx="25" fill="url(#paint0_linear_2_85)"/>
<path d="M232.635 106.548C231.993 97.5187 221.657 89.0829 228.989 70.55C240.095 42.4772 247.379 40.6916 255.662 38.6611C261.683 37.185 273.198 36.0731 278.695 36.8553C285.292 37.9035 299.634 45.4087 293.301 64.0167C289.903 74 291.316 75.0276 267 93.8586C254.947 98.8726 257.888 100.357 232.635 106.548Z" fill="#5DB33F" stroke="white"/>
<path d="M205.181 85.9797C206.707 77.0574 213.332 55.5041 227.629 40.6693C245.5 22.1259 253.784 18.5235 261.128 16.0483C267.003 14.0681 278.776 17.71 283.928 19.7785C290.086 22.3672 300.251 31.9631 291.647 49.6365C283.044 67.3098 258.667 74.2118 247.554 75.4536C235.139 75.1465 224.104 77.4372 205.181 85.9797Z" fill="#71D54E" stroke="white"/>
<path d="M191.614 25.9509C198.757 20.3916 218.184 8.94468 238.745 7.63161C264.446 5.99028 272.992 8.9167 280.084 12.0412C285.757 14.5409 291.995 25.1694 294.405 30.1713C297.206 36.2354 298.24 50.1757 279.97 57.4241C261.699 64.6726 239.044 53.3301 230 46.7527C221.04 38.1539 211.347 32.4039 191.614 25.9509Z" fill="#88F063" stroke="white"/>
<path d="M32.9583 82.6068C32.9578 82.2918 33.211 82.0183 33.5254 82.038L34.8168 82.1187C35.4101 82.2374 36.0747 82.4035 36.8341 83.068C37.467 82.6725 39.3427 82.026 41.818 82.356C43.5979 82.5934 43.0685 82.5934 42.174 83.424C41.6202 83.9382 40.4652 85.5362 40.2754 87.8146C39.682 87.6168 37.9733 87.3399 35.8848 87.8146C35.1759 87.2176 33.4605 86.0998 31.9933 86.1342C31.9014 86.1363 31.8404 86.0217 31.8943 85.9472C32.37 85.289 32.9606 83.9986 32.9583 82.6068Z" fill="white" stroke="#5DB23F" stroke-width="0.5"/>
<circle cx="26.7476" cy="85.4413" r="3.19125" fill="white" stroke="#5DB23F" stroke-width="0.5"/>
<path d="M21.7638 89.8318C23.2669 89.2781 26.8426 88.6927 29.121 90.7811C30.189 91.1371 32.9894 91.2083 35.6475 88.6452C35.5288 89.555 34.5083 91.7779 31.3756 93.3917C32.3249 96.7934 30.3788 103.312 15 102.173C17.7293 101.58 21.4078 101.224 25.4424 98.8503C28.053 97.3146 30.2753 91.6847 21.7638 89.8318Z" fill="white" stroke="#5DB23F" stroke-width="0.5"/>
</g>
<defs>
<filter id="filter0_d_2_85" x="0" y="6.65996" width="300.478" height="112.506" filterUnits="userSpaceOnUse" color-interpolation-filters="sRGB">
<feFlood flood-opacity="0" result="BackgroundImageFix"/>
<feColorMatrix in="SourceAlpha" type="matrix" values="0 0 0 0 0 0 0 0 0 0 0 0 0 0 0 0 0 0 127 0" result="hardAlpha"/>
<feOffset dy="4"/>
<feGaussianBlur stdDeviation="2"/>
<feComposite in2="hardAlpha" operator="out"/>
<feColorMatrix type="matrix" values="0 0 0 0 0 0 0 0 0 0 0 0 0 0 0 0 0 0 0.25 0"/>
<feBlend mode="normal" in2="BackgroundImageFix" result="effect1_dropShadow_2_85"/>
<feBlend mode="normal" in="SourceGraphic" in2="effect1_dropShadow_2_85" result="shape"/>
</filter>
<linearGradient id="paint0_linear_2_85" x1="149.5" y1="11.1663" x2="149.5" y2="111.166" gradientUnits="userSpaceOnUse">
<stop stop-color="#35D658"/>
<stop offset="0.671875" stop-color="#2CA765"/>
<stop offset="1" stop-color="#1C6338"/>
</linearGradient>
</defs>
</svg>
