<svg width="18" height="18" viewBox="0 0 18 18" fill="none" xmlns="http://www.w3.org/2000/svg">
<mask id="mask0_93_51" style="mask-type:alpha" maskUnits="userSpaceOnUse" x="0" y="0" width="18" height="18">
<rect x="0.5" y="0.5" width="17" height="17" fill="#D9D9D9"/>
</mask>
<g mask="url(#mask0_93_51)">
<path d="M14.631 15.5L10.0451 10.95C9.68109 11.2389 9.26253 11.4676 8.78938 11.6361C8.31622 11.8046 7.81273 11.8889 7.27892 11.8889C5.95651 11.8889 4.83731 11.4345 3.92133 10.5257C3.00535 9.6169 2.54736 8.50648 2.54736 7.19444C2.54736 5.88241 3.00535 4.77199 3.92133 3.86319C4.83731 2.9544 5.95651 2.5 7.27892 2.5C8.60133 2.5 9.72052 2.9544 10.6365 3.86319C11.5525 4.77199 12.0105 5.88241 12.0105 7.19444C12.0105 7.72407 11.9255 8.22361 11.7557 8.69306C11.5858 9.1625 11.3553 9.57778 11.0642 9.93889L15.6501 14.4889L14.631 15.5ZM7.27892 10.4444C8.18883 10.4444 8.96226 10.1285 9.5992 9.49653C10.2361 8.86458 10.5546 8.09722 10.5546 7.19444C10.5546 6.29167 10.2361 5.52431 9.5992 4.89236C8.96226 4.26042 8.18883 3.94444 7.27892 3.94444C6.369 3.94444 5.59558 4.26042 4.95864 4.89236C4.3217 5.52431 4.00323 6.29167 4.00323 7.19444C4.00323 8.09722 4.3217 8.86458 4.95864 9.49653C5.59558 10.1285 6.369 10.4444 7.27892 10.4444Z" fill="#B6B6B6"/>
</g>
</svg>
