<svg width="25" height="25" viewBox="0 0 25 25" fill="none" xmlns="http://www.w3.org/2000/svg">
<path d="M7.43494 24.7619C6.75341 24.7619 6.16997 24.5194 5.68463 24.0345C5.1993 23.5496 4.95663 22.9667 4.95663 22.2857C4.95663 21.6048 5.1993 21.0218 5.68463 20.5369C6.16997 20.052 6.75341 19.8095 7.43494 19.8095C8.11648 19.8095 8.69992 20.052 9.18526 20.5369C9.67059 21.0218 9.91326 21.6048 9.91326 22.2857C9.91326 22.9667 9.67059 23.5496 9.18526 24.0345C8.69992 24.5194 8.11648 24.7619 7.43494 24.7619ZM19.8265 24.7619C19.145 24.7619 18.5615 24.5194 18.0762 24.0345C17.5909 23.5496 17.3482 22.9667 17.3482 22.2857C17.3482 21.6048 17.5909 21.0218 18.0762 20.5369C18.5615 20.052 19.145 19.8095 19.8265 19.8095C20.5081 19.8095 21.0915 20.052 21.5768 20.5369C22.0622 21.0218 22.3048 21.6048 22.3048 22.2857C22.3048 22.9667 22.0622 23.5496 21.5768 24.0345C21.0915 24.5194 20.5081 24.7619 19.8265 24.7619ZM7.43494 18.5714C6.50558 18.5714 5.79306 18.1639 5.2974 17.3488C4.80174 16.5337 4.79141 15.7238 5.26642 14.919L6.93928 11.8857L2.47831 2.47619H0V0H4.05824L5.22856 2.47619L6.20859 4.54979L9.32466 11.1429H18.0297L21.6826 4.54979L22.8315 2.47619L25 3.65238L20.1983 12.319C19.9711 12.7317 19.6716 13.0516 19.2999 13.2786C18.9281 13.5056 18.5048 13.619 18.0297 13.619H8.79802L7.43494 16.0952H22.3048V18.5714H7.43494Z" fill="#232323"/>
</svg>
