<svg width="40" height="40" viewBox="0 0 40 40" fill="none" xmlns="http://www.w3.org/2000/svg">
<mask id="mask0_49_116" style="mask-type:alpha" maskUnits="userSpaceOnUse" x="0" y="0" width="40" height="40">
<rect x="0.114258" y="0.114288" width="39.7714" height="39.7714" fill="#1C1B1F"/>
</mask>
<g mask="url(#mask0_49_116)">
<path d="M18.3429 15.0286V10.0571H13.3715V6.74285H18.3429V1.77142H21.6572V6.74285H26.6286V10.0571H21.6572V15.0286H18.3429ZM11.7143 36.5714C10.8029 36.5714 10.0227 36.2469 9.37363 35.5979C8.72458 34.9488 8.40006 34.1686 8.40006 33.2571C8.40006 32.3457 8.72458 31.5655 9.37363 30.9164C10.0227 30.2674 10.8029 29.9429 11.7143 29.9429C12.6258 29.9429 13.406 30.2674 14.0551 30.9164C14.7041 31.5655 15.0286 32.3457 15.0286 33.2571C15.0286 34.1686 14.7041 34.9488 14.0551 35.5979C13.406 36.2469 12.6258 36.5714 11.7143 36.5714ZM28.2858 36.5714C27.3743 36.5714 26.5941 36.2469 25.9451 35.5979C25.296 34.9488 24.9715 34.1686 24.9715 33.2571C24.9715 32.3457 25.296 31.5655 25.9451 30.9164C26.5941 30.2674 27.3743 29.9429 28.2858 29.9429C29.1972 29.9429 29.9774 30.2674 30.6265 30.9164C31.2755 31.5655 31.6001 32.3457 31.6001 33.2571C31.6001 34.1686 31.2755 34.9488 30.6265 35.5979C29.9774 36.2469 29.1972 36.5714 28.2858 36.5714ZM11.7143 28.2857C10.4715 28.2857 9.51863 27.7402 8.85577 26.6493C8.19291 25.5583 8.1791 24.4743 8.81434 23.3971L11.0515 19.3371L5.08577 6.74285H1.77148V3.42857H7.19863L14.2415 18.3429H25.8829L32.3043 6.74285L35.2043 8.31714L28.7829 19.9171C28.4791 20.4695 28.0786 20.8976 27.5815 21.2014C27.0843 21.5052 26.5182 21.6571 25.8829 21.6571H13.5372L11.7143 24.9714H31.6001V28.2857H11.7143Z" fill="black"/>
</g>
</svg>
