<svg width="58" height="58" viewBox="0 0 58 58" fill="none" xmlns="http://www.w3.org/2000/svg">
<circle cx="29" cy="29" r="29" fill="#16BE55"/>
<mask id="mask0_49_118" style="mask-type:alpha" maskUnits="userSpaceOnUse" x="9" y="9" width="40" height="40">
<rect x="9.11426" y="9.11429" width="39.7714" height="39.7714" fill="#D9D9D9"/>
</mask>
<g mask="url(#mask0_49_118)">
<path d="M27.3429 24.0286V19.0571H22.3715V15.7429H27.3429V10.7714H30.6572V15.7429H35.6286V19.0571H30.6572V24.0286H27.3429ZM20.7143 45.5714C19.8029 45.5714 19.0227 45.2469 18.3736 44.5979C17.7246 43.9488 17.4001 43.1686 17.4001 42.2571C17.4001 41.3457 17.7246 40.5655 18.3736 39.9164C19.0227 39.2674 19.8029 38.9429 20.7143 38.9429C21.6258 38.9429 22.406 39.2674 23.0551 39.9164C23.7041 40.5655 24.0286 41.3457 24.0286 42.2571C24.0286 43.1686 23.7041 43.9488 23.0551 44.5979C22.406 45.2469 21.6258 45.5714 20.7143 45.5714ZM37.2858 45.5714C36.3743 45.5714 35.5941 45.2469 34.9451 44.5979C34.296 43.9488 33.9715 43.1686 33.9715 42.2571C33.9715 41.3457 34.296 40.5655 34.9451 39.9164C35.5941 39.2674 36.3743 38.9429 37.2858 38.9429C38.1972 38.9429 38.9774 39.2674 39.6265 39.9164C40.2755 40.5655 40.6001 41.3457 40.6001 42.2571C40.6001 43.1686 40.2755 43.9488 39.6265 44.5979C38.9774 45.2469 38.1972 45.5714 37.2858 45.5714ZM20.7143 37.2857C19.4715 37.2857 18.5186 36.7402 17.8558 35.6493C17.1929 34.5583 17.1791 33.4743 17.8143 32.3971L20.0515 28.3371L14.0858 15.7429H10.7715V12.4286H16.1986L23.2415 27.3429H34.8829L41.3043 15.7429L44.2043 17.3171L37.7829 28.9171C37.4791 29.4695 37.0786 29.8976 36.5815 30.2014C36.0843 30.5052 35.5182 30.6571 34.8829 30.6571H22.5372L20.7143 33.9714H40.6001V37.2857H20.7143Z" fill="white"/>
</g>
</svg>
