<svg width="30" height="30" viewBox="0 0 30 30" fill="none" xmlns="http://www.w3.org/2000/svg">
<mask id="mask0_5_211" style="mask-type:alpha" maskUnits="userSpaceOnUse" x="0" y="0" width="30" height="30">
<rect width="30" height="30" fill="#D9D9D9"/>
</mask>
<g mask="url(#mask0_5_211)">
<path d="M13.75 22.5C11.3333 22.5 9.27083 21.6458 7.5625 19.9375C5.85417 18.2292 5 16.1667 5 13.75V6.25C5 5.5625 5.24479 4.97396 5.73438 4.48438C6.22396 3.99479 6.8125 3.75 7.5 3.75H23.125C24.3333 3.75 25.3646 4.17708 26.2188 5.03125C27.0729 5.88542 27.5 6.91667 27.5 8.125C27.5 9.33333 27.0729 10.3646 26.2188 11.2188C25.3646 12.0729 24.3333 12.5 23.125 12.5H22.5V13.75C22.5 16.1667 21.6458 18.2292 19.9375 19.9375C18.2292 21.6458 16.1667 22.5 13.75 22.5ZM7.5 10H20V6.25H7.5V10ZM13.75 20C15.4792 20 16.9531 19.3906 18.1719 18.1719C19.3906 16.9531 20 15.4792 20 13.75V12.5H7.5V13.75C7.5 15.4792 8.10938 16.9531 9.32812 18.1719C10.5469 19.3906 12.0208 20 13.75 20ZM22.5 10H23.125C23.6458 10 24.0885 9.81771 24.4531 9.45312C24.8177 9.08854 25 8.64583 25 8.125C25 7.60417 24.8177 7.16146 24.4531 6.79688C24.0885 6.43229 23.6458 6.25 23.125 6.25H22.5V10ZM5 26.25V23.75H25V26.25H5Z" fill="#1C1B1F"/>
</g>
</svg>
