<svg width="11" height="11" viewBox="0 0 11 11" fill="none" xmlns="http://www.w3.org/2000/svg">
<g id="location_on">
<mask id="mask0_93_33" style="mask-type:alpha" maskUnits="userSpaceOnUse" x="0" y="0" width="11" height="11">
<rect id="Bounding box" width="11" height="11" fill="#D9D9D9"/>
</mask>
<g mask="url(#mask0_93_33)">
<path id="location_on_2" d="M5.50016 5.49996C5.75225 5.49996 5.96804 5.4102 6.14756 5.23069C6.32707 5.05117 6.41683 4.83538 6.41683 4.58329C6.41683 4.33121 6.32707 4.11541 6.14756 3.9359C5.96804 3.75638 5.75225 3.66663 5.50016 3.66663C5.24808 3.66663 5.03228 3.75638 4.85277 3.9359C4.67325 4.11541 4.5835 4.33121 4.5835 4.58329C4.5835 4.83538 4.67325 5.05117 4.85277 5.23069C5.03228 5.4102 5.24808 5.49996 5.50016 5.49996ZM5.50016 10.0833C4.2703 9.03676 3.35173 8.06472 2.74443 7.16715C2.13714 6.26958 1.8335 5.43885 1.8335 4.67496C1.8335 3.52913 2.20207 2.61628 2.93923 1.93642C3.67638 1.25656 4.53002 0.916626 5.50016 0.916626C6.4703 0.916626 7.32395 1.25656 8.0611 1.93642C8.79825 2.61628 9.16683 3.52913 9.16683 4.67496C9.16683 5.43885 8.86318 6.26958 8.25589 7.16715C7.6486 8.06472 6.73002 9.03676 5.50016 10.0833Z" fill="#1C1B1F"/>
</g>
</g>
</svg>
