<svg width="26" height="26" viewBox="0 0 26 26" fill="none" xmlns="http://www.w3.org/2000/svg">
<g id="Novidades">
<g id="notification_important">
<mask id="mask0_2_165" style="mask-type:alpha" maskUnits="userSpaceOnUse" x="0" y="0" width="26" height="26">
<rect id="Bounding box" width="26" height="26" fill="#D9D9D9"/>
</mask>
<g mask="url(#mask0_2_165)">
<path id="notification_important_2" d="M4.33331 20.5833V18.4167H6.49998V10.8333C6.49998 9.33472 6.95137 8.00312 7.85415 6.83854C8.75692 5.67396 9.93054 4.91111 11.375 4.55V3.79166C11.375 3.34028 11.533 2.95659 11.8489 2.64062C12.1649 2.32465 12.5486 2.16666 13 2.16666C13.4514 2.16666 13.835 2.32465 14.151 2.64062C14.467 2.95659 14.625 3.34028 14.625 3.79166V4.55C16.0694 4.91111 17.243 5.67396 18.1458 6.83854C19.0486 8.00312 19.5 9.33472 19.5 10.8333V18.4167H21.6666V20.5833H4.33331ZM13 23.8333C12.4041 23.8333 11.8941 23.6212 11.4698 23.1969C11.0455 22.7726 10.8333 22.2625 10.8333 21.6667H15.1666C15.1666 22.2625 14.9545 22.7726 14.5302 23.1969C14.1059 23.6212 13.5958 23.8333 13 23.8333ZM8.66665 18.4167H17.3333V10.8333C17.3333 9.64166 16.909 8.62152 16.0604 7.77291C15.2118 6.9243 14.1916 6.5 13 6.5C11.8083 6.5 10.7882 6.9243 9.93956 7.77291C9.09095 8.62152 8.66665 9.64166 8.66665 10.8333V18.4167Z" fill="#1C1B1F"/>
</g>
</g>
<g id="grade">
<mask id="mask1_2_165" style="mask-type:alpha" maskUnits="userSpaceOnUse" x="11" y="2" width="15" height="15">
<rect id="Bounding box_2" x="11.6552" y="2.68965" width="13.4483" height="13.4483" fill="#D9D9D9"/>
</mask>
<g mask="url(#mask1_2_165)">
<path id="grade_2" d="M14.9191 15.0172L15.8297 11.0808L12.7758 8.43317L16.8103 8.08296L18.3793 4.37067L19.9482 8.08296L23.9827 8.43317L20.9288 11.0808L21.8394 15.0172L18.3793 12.9299L14.9191 15.0172Z" fill="#E6AD1C"/>
</g>
</g>
</g>
</svg>
